PathFileType	4	(X/Y/Z)	/Users/itak/Documents/Research/Walk-IL/dataset/trc/00324_00011.trc
DataRate	CameraRate	NumFrames	NumMarkers	Units	OrigDataRate	OrigDataStartFrame	OrigNumFrames
100.000000	100.000000	4	56	mm	100.000000	420	480
Frame#	Time	LPSI			L3			STRN			T10			C7			CLAV			RBAK			LBAK			LSHO			LUPA			LAEL			LAOL			LWTS			LWPS			LFRA			LHPS			LHTS			RSHO			RUPA			RAEL			RAOL			RWTS			RWPS			RFRA			RIFD			RHTS			RHPS			RBHD			LFHD			RFHD			LBHD			LHIP			RASI			LASI			LKNE			LTHI			LANK			LTIP			LTOE			LMT1			LMT5			LHEE			RKNE			RANK			RTIP			RTOE			RMT1			RMT5			RHEE			RPSI			LIFD			RHIP			RTHI			*53			*54			*55			
		X1	Y1	Z1	X2	Y2	Z2	X3	Y3	Z3	X4	Y4	Z4	X5	Y5	Z5	X6	Y6	Z6	X7	Y7	Z7	X8	Y8	Z8	X9	Y9	Z9	X10	Y10	Z10	X11	Y11	Z11	X12	Y12	Z12	X13	Y13	Z13	X14	Y14	Z14	X15	Y15	Z15	X16	Y16	Z16	X17	Y17	Z17	X18	Y18	Z18	X19	Y19	Z19	X20	Y20	Z20	X21	Y21	Z21	X22	Y22	Z22	X23	Y23	Z23	X24	Y24	Z24	X25	Y25	Z25	X26	Y26	Z26	X27	Y27	Z27	X28	Y28	Z28	X29	Y29	Z29	X30	Y30	Z30	X31	Y31	Z31	X32	Y32	Z32	X33	Y33	Z33	X34	Y34	Z34	X35	Y35	Z35	X36	Y36	Z36	X37	Y37	Z37	X38	Y38	Z38	X39	Y39	Z39	X40	Y40	Z40	X41	Y41	Z41	X42	Y42	Z42	X43	Y43	Z43	X44	Y44	Z44	X45	Y45	Z45	X46	Y46	Z46	X47	Y47	Z47	X48	Y48	Z48	X49	Y49	Z49	X50	Y50	Z50	X51	Y51	Z51	X52	Y52	Z52	X53	Y53	Z53	X54	Y54	Z54	X55	Y55	Z55	X56	Y56	Z56	

421	4.2	821.5675048828125	975.8988647460938	22.17819786071777	825.3667602539062	1022.996459960938	89.38369750976562	1034.979614257812	1226.411865234375	62.15194702148438	802.5951538085938	1138.403930664062	77.86526489257812	815.4432983398438	1390.276000976562	61.42721557617188	979.1994018554688	1347.552734375	61.03285217285156	789.8485107421875	1247.128295898438	128.6575469970703	803.81298828125	1351.894409179688	-39.427978515625	885.4407348632812	1375.353637695312	-98.04412841796875	874.2825317382812	1254.14306640625	-164.9777984619141	916.7481689453125	1054.154296875	-179.5157012939453	854.8988647460938	1032.0361328125	-124.6182174682617	1068.24951171875	849.414306640625	-128.0223846435547	1033.845825195312	823.8587646484375	-182.1720733642578	953.403564453125	954.7643432617188	-184.7435150146484	1053.2548828125	757.324951171875	-174.604736328125	1105.240234375	780.8053588867188	-143.0894012451172	880.427978515625	1382.28466796875	222.5055847167969	873.1060791015625	1315.890625	285.8699035644531	888.6941528320312	1047.387451171875	313.672607421875	865.7994995117188	1040.188354492188	221.7434387207031	1001.881896972656	819.054443359375	297.1164855957031	952.4493408203125	809.0912475585938	354.3855285644531	910.8465576171875	982.6939086914062	327.4485473632812	997.94189453125	644.8365478515625	312.5931701660156	1016.244567871094	714.69091796875	318.4034729003906	959.2313842773438	724.4392700195312	356.05859375	845.0400390625	1598.903930664062	139.3800811767578	1006.658447265625	1627.431518554688	10.28030490875244	1002.342590332031	1629.348754882812	111.2629852294922	824.6161499023438	1587.796997070312	-3.941341876983643	896.6668090820312	915.1939697265625	-87.55619049072266	1016.418762207031	949.0630493164062	204.1344146728516	1022.156311035156	944.703857421875	-38.4264030456543	918.5674438476562	456.3511352539062	-70.13533020019531	922.8201904296875	597.5628662109375	-83.217529296875	857.8067016601562	37.42182922363281	-37.43688201904297	884.4176635742188	241.4351501464844	-67.79033660888672	1069.694702148438	34.09696578979492	0.2489078044891357	1005.994995117188	25.71522521972656	49.81088638305664	982.0593872070312	31.53576469421387	-62.77325439453125	832.0643310546875	36.15745544433594	32.97515869140625	929.310791015625	455.3388977050781	225.6913299560547	866.6876831054688	45.04784393310547	198.0748596191406	932.7066650390625	337.3131408691406	214.6478424072266	1058.402221679688	33.06438446044922	140.515869140625	999.4702758789062	28.14890289306641	100.4812393188477	966.7220458984375	29.49265289306641	213.1028442382812	814.5323486328125	45.54923629760742	151.3171997070312	830.2254638671875	975.2080078125	149.9290924072266	1125.39599609375	700.6070556640625	-119.5011215209961	912.0487670898438	919.1611938476562	251.802978515625	976.3845825195312	714.7242431640625	253.4402923583984	nan	nan	nan	nan	nan	nan	nan	nan	nan	
422	4.21	822.1404418945312	976.4146728515625	21.70985984802246	826.4367065429688	1023.502746582031	88.97044372558594	1036.013305664062	1226.62451171875	61.68123626708984	804.0257568359375	1138.686767578125	77.22957611083984	816.4143676757812	1390.480346679688	60.86614608764648	980.2861328125	1347.828369140625	60.54111862182617	790.8839111328125	1247.41552734375	127.9114151000977	804.8028564453125	1352.181396484375	-40.01774597167969	886.4974365234375	1375.804931640625	-98.52077484130859	875.8802490234375	1254.624633789062	-165.5834197998047	919.8631591796875	1054.93896484375	-180.2591247558594	858.0165405273438	1032.2255859375	-125.5867004394531	1074.4951171875	853.0755615234375	-128.0476684570312	1040.677856445312	826.6815185546875	-182.2187957763672	957.8693237304688	956.1414184570312	-185.3397369384766	1061.348999023438	760.6093139648438	-174.4600677490234	1112.9404296875	785.3016967773438	-143.1021118164062	881.295654296875	1382.63427734375	221.9309844970703	873.7581787109375	1316.24560546875	285.2278442382812	887.9354248046875	1047.638793945312	312.5519714355469	866.4970703125	1040.689208984375	220.2371215820312	998.962158203125	818.0853881835938	298.0087280273438	948.4932861328125	809.1991577148438	354.4534912109375	909.302734375	983.0189208984375	326.7014465332031	991.52880859375	643.9217529296875	314.2323608398438	1011.0576171875	713.3349609375	319.9305725097656	953.8094482421875	724.578125	356.7985229492188	846.0023193359375	1599.613525390625	138.9822845458984	1007.790222167969	1627.291015625	9.901551246643066	1003.48974609375	1629.244506835938	110.8467102050781	825.5426025390625	1588.671752929688	-4.334017753601074	897.1766967773438	915.5150756835938	-87.94260406494141	1016.826965332031	948.910400390625	203.7667999267578	1022.734924316406	944.7721557617188	-38.84511566162109	919.3046264648438	456.2960510253906	-70.47968292236328	925.0841674804688	597.3330688476562	-83.27523040771484	857.8150634765625	37.38531875610352	-37.53774642944336	884.89404296875	241.3437805175781	-67.99788665771484	1069.6982421875	34.11623001098633	0.2534537613391876	1005.980163574219	25.74297332763672	49.80245208740234	982.048583984375	31.5183219909668	-62.7800178527832	832.0426025390625	36.20602416992188	32.87100601196289	928.6153564453125	455.3888549804688	225.6504974365234	866.6227416992188	45.01207733154297	198.0580596923828	932.1386108398438	337.4200134277344	214.7794494628906	1058.379150390625	33.12565994262695	140.5590057373047	999.4451293945312	28.18422317504883	100.5185317993164	966.6879272460938	29.47161483764648	213.1421661376953	814.5406494140625	45.47975540161133	151.3117370605469	830.8228149414062	975.7490844726562	149.4260559082031	1134.64697265625	705.55908203125	-119.2245712280273	912.1082763671875	919.3325805664062	251.2057495117188	976.6292114257812	714.4053344726562	252.9179077148438	nan	nan	nan	nan	nan	nan	nan	nan	nan	
423	4.22	822.6726684570312	976.9420776367188	21.29569816589355	827.4025268554688	1024.041748046875	88.59897613525391	1037.026733398438	1226.813232421875	61.26224517822266	805.3851928710938	1139.041870117188	76.63365173339844	817.4335327148438	1390.737182617188	60.31596755981445	981.403564453125	1348.084350585938	60.07780456542969	791.8825073242188	1247.800903320312	127.1890487670898	805.8626098632812	1352.536987304688	-40.59420776367188	887.6458740234375	1376.284545898438	-98.97760009765625	877.52392578125	1255.141723632812	-166.1747589111328	922.898681640625	1055.743530273438	-181.0041961669922	861.0484619140625	1032.478271484375	-126.5521850585938	1080.387817382812	856.6036376953125	-128.0607757568359	1047.150512695312	829.4415283203125	-182.2677154541016	962.169677734375	957.5408935546875	-185.9265289306641	1069.015991210938	763.7965698242188	-174.2169494628906	1120.118896484375	789.5563354492188	-143.0350646972656	882.2059936523438	1383.0390625	221.3642272949219	874.4154663085938	1316.6943359375	284.6106567382812	887.0335083007812	1048.031494140625	311.5693054199219	867.1151733398438	1041.25830078125	218.9076080322266	996.3593139648438	817.482177734375	298.9743957519531	944.8140258789062	809.4351196289062	354.4918212890625	907.6929931640625	983.4315795898438	326.0858764648438	985.8878173828125	643.3369140625	315.6618041992188	1006.434814453125	712.3978881835938	321.3645324707031	948.915771484375	724.889892578125	357.3775024414062	846.9144287109375	1600.246459960938	138.6030883789062	1008.8505859375	1627.234375	9.562226295471191	1004.558044433594	1629.206665039062	110.4657745361328	826.4384155273438	1589.475830078125	-4.714972496032715	897.6195678710938	915.85888671875	-88.29819488525391	1017.192321777344	948.7839965820312	203.3829193115234	1023.224609375	944.8522338867188	-39.2140007019043	920.2027587890625	456.2858581542969	-70.77783966064453	927.1435546875	597.1699829101562	-83.43793487548828	857.8436279296875	37.38480758666992	-37.60683441162109	885.4705200195312	241.2707824707031	-68.16005706787109	1069.709106445312	34.11409378051758	0.2709681987762451	1005.986022949219	25.73319435119629	49.81103897094727	982.0523071289062	31.50523948669434	-62.76730728149414	832.0325317382812	36.26811981201172	32.79422378540039	927.8521728515625	455.455322265625	225.6186828613281	866.5582885742188	44.98080444335938	198.0432281494141	931.5205078125	337.5785522460938	214.9387359619141	1058.35986328125	33.19170379638672	140.6087341308594	999.4203491210938	28.22647094726562	100.5585479736328	966.651611328125	29.4444751739502	213.186767578125	814.557861328125	45.40394592285156	151.3069610595703	831.396484375	976.3223266601562	148.9898376464844	1143.216430664062	710.2876586914062	-118.8713302612305	912.385009765625	919.5105590820312	250.7357635498047	977.0348510742188	714.0133056640625	252.2708740234375	nan	nan	nan	nan	nan	nan	nan	nan	nan	
424	4.23	823.1817626953125	977.4558715820312	20.90849685668945	828.2385864257812	1024.583862304688	88.24760437011719	1038.021118164062	1226.970092773438	60.88805770874023	806.6345825195312	1139.445190429688	76.07141876220703	818.4972534179688	1391.033081054688	59.77793884277344	982.5435791015625	1348.310424804688	59.64268493652344	792.8612670898438	1248.2548828125	126.5005950927734	806.9939575195312	1352.940795898438	-41.15748596191406	888.8756713867188	1376.767333984375	-99.41188812255859	879.2020874023438	1255.667114257812	-166.7533874511719	925.8519287109375	1056.544189453125	-181.7541809082031	863.9895629882812	1032.76416015625	-127.5224380493164	1085.92236328125	859.9513549804688	-128.0583038330078	1053.262451171875	832.0952758789062	-182.3093719482422	966.3020629882812	958.9303588867188	-186.5018310546875	1076.24853515625	766.8458862304688	-173.8965301513672	1126.797119140625	793.5505981445312	-142.89404296875	883.1591186523438	1383.479370117188	220.803955078125	875.0885009765625	1317.21728515625	284.029052734375	886.0388793945312	1048.552612304688	310.7471923828125	867.5969848632812	1041.880493164062	217.7776336669922	994.080810546875	817.2111206054688	299.9984130859375	941.4285888671875	809.748046875	354.5135803222656	906.0615234375	983.9130859375	325.6026611328125	981.0892333984375	643.0360717773438	316.85302734375	1002.412231445312	711.83642578125	322.6928100585938	944.580322265625	725.2998046875	357.8002624511719	847.783447265625	1600.779907226562	138.2410583496094	1009.841186523438	1627.266235351562	9.256103515625	1005.548034667969	1629.234985351562	110.1193313598633	827.3091430664062	1590.177124023438	-5.088742733001709	898.0154418945312	916.1861572265625	-88.64320373535156	1017.514953613281	948.6847534179688	203.0021057128906	1023.654663085938	944.9342651367188	-39.53705596923828	921.1904296875	456.3102111816406	-71.02210235595703	928.9249267578125	597.0614013671875	-83.67507934570312	857.8846435546875	37.40987777709961	-37.64752960205078	886.0892333984375	241.2153778076172	-68.28079986572266	1069.723510742188	34.09539031982422	0.2995905876159668	1006.00732421875	25.69613075256348	49.83382797241211	982.0657958984375	31.49605178833008	-62.73931121826172	832.0282592773438	36.33501052856445	32.74063491821289	927.0538940429688	455.5265197753906	225.5890655517578	866.4931030273438	44.95341110229492	198.0295867919922	930.8717651367188	337.7901306152344	215.0962677001953	1058.342895507812	33.26124954223633	140.6626281738281	999.3963012695312	28.27396392822266	100.5996170043945	966.6144409179688	29.41351890563965	213.2330017089844	814.5795288085938	45.32390594482422	151.3042297363281	831.9381103515625	976.904541015625	148.6054382324219	1151.131958007812	714.7459716796875	-118.4357376098633	912.87353515625	919.6851806640625	250.3988189697266	977.5026245117188	713.599609375	251.5846710205078	nan	nan	nan	nan	nan	nan	nan	nan	nan	
